name D:\school\WTK\thesis\model\3dpredictsim\Results\MidTarsalJoint\Fal_s1_bCst_PF_Natali2010_ls148_MT_k800_MTP_T10_ig24.mot
datacolumns 128
datarows 4
range 0.55659044 0.58998586
endheader
time	pelvis_tilt	pelvis_list	pelvis_rotation	pelvis_tx	pelvis_ty	pelvis_tz	hip_flexion_l	hip_adduction_l	hip_rotation_l	hip_flexion_r	hip_adduction_r	hip_rotation_r	knee_angle_l	knee_angle_r	ankle_angle_l	ankle_angle_r	subtalar_angle_l	subtalar_angle_r	mtj_angle_l	mtj_angle_r	mtp_angle_l	mtp_angle_r	lumbar_extension	lumbar_bending	lumbar_rotation	arm_flex_l	arm_add_l	arm_rot_l	arm_flex_r	arm_add_r	arm_rot_r	elbow_flex_l	elbow_flex_r	pro_sup_l	pro_sup_r	glut_med1_l/activation	glut_med2_l/activation	glut_med3_l/activation	glut_min1_l/activation	glut_min2_l/activation	glut_min3_l/activation	semimem_l/activation	semiten_l/activation	bifemlh_l/activation	bifemsh_l/activation	sar_l/activation	add_long_l/activation	add_brev_l/activation	add_mag1_l/activation	add_mag2_l/activation	add_mag3_l/activation	tfl_l/activation	pect_l/activation	grac_l/activation	glut_max1_l/activation	glut_max2_l/activation	glut_max3_l/activation	iliacus_l/activation	psoas_l/activation	quad_fem_l/activation	gem_l/activation	peri_l/activation	rect_fem_l/activation	vas_med_l/activation	vas_int_l/activation	vas_lat_l/activation	med_gas_l/activation	lat_gas_l/activation	soleus_l/activation	tib_post_l/activation	flex_dig_l/activation	flex_hal_l/activation	tib_ant_l/activation	per_brev_l/activation	per_long_l/activation	per_tert_l/activation	ext_dig_l/activation	ext_hal_l/activation	ercspn_l/activation	intobl_l/activation	extobl_l/activation	glut_med1_r/activation	glut_med2_r/activation	glut_med3_r/activation	glut_min1_r/activation	glut_min2_r/activation	glut_min3_r/activation	semimem_r/activation	semiten_r/activation	bifemlh_r/activation	bifemsh_r/activation	sar_r/activation	add_long_r/activation	add_brev_r/activation	add_mag1_r/activation	add_mag2_r/activation	add_mag3_r/activation	tfl_r/activation	pect_r/activation	grac_r/activation	glut_max1_r/activation	glut_max2_r/activation	glut_max3_r/activation	iliacus_r/activation	psoas_r/activation	quad_fem_r/activation	gem_r/activation	peri_r/activation	rect_fem_r/activation	vas_med_r/activation	vas_int_r/activation	vas_lat_r/activation	med_gas_r/activation	lat_gas_r/activation	soleus_r/activation	tib_post_r/activation	flex_dig_r/activation	flex_hal_r/activation	tib_ant_r/activation	per_brev_r/activation	per_long_r/activation	per_tert_r/activation	ext_dig_r/activation	ext_hal_r/activation	ercspn_r/activation	intobl_r/activation	extobl_r/activation	
          0.55659044	         -2.92944055	          2.04299002	         -5.09335421	          0.69573805	          0.91829807	          0.00219378	         29.17423510	          3.52779595	         -2.08614246	        -17.35919980	         -0.88567972	          6.26218227	        -11.50430420	         -6.69779572	          6.00432402	         -0.23655793	         -6.16915197	          6.74917729	         -0.13852556	          1.84451135	          0.21290877	         18.74962603	         -1.81606009	         -0.26781090	          1.98792463	         -5.44377571	        -13.46743992	          7.02168942	          5.22607647	        -13.45214568	         16.05236423	         16.23396653	         32.90655419	         86.51662706	         86.51662706	          0.10064597	          0.05927627	          0.05000018	          0.05932089	          0.05927678	          0.05000237	          0.11911900	          0.05000076	          0.19855537	          0.05000109	          0.05000062	          0.11709379	          0.17529626	          0.22102262	          0.16276821	          0.10526499	          0.05000047	          0.05001700	          0.06748998	          0.05000391	          0.05836739	          0.12059186	          0.05948807	          0.05334858	          0.50054589	          0.15844962	          0.05000163	          0.07027469	          0.15536060	          0.15416287	          0.13526277	          0.05000001	          0.05000004	          0.05000000	          0.05000015	          0.05000108	          0.05000073	          0.52439519	          0.25848063	          0.19646476	          0.24610396	          0.47683308	          0.16443804	          0.05898779	          0.11192448	          0.09961786	          0.26601927	          0.09876638	          0.07027437	          0.27388728	          0.18130248	          0.10174445	          0.05000259	          0.05000051	          0.05000039	          0.05542377	          0.09876893	          0.08249383	          0.05846622	          0.05000612	          0.05000708	          0.05000361	          0.29262561	          0.06273829	          0.05000390	          0.05000336	          0.05000240	          0.05000252	          0.39396180	          0.61835134	          0.05000049	          0.05000456	          0.05927691	          0.22231197	          0.05001182	          0.11230067	          0.11630337	          0.27681504	          0.37560117	          0.30130800	          0.28548792	          0.27173152	          0.35856588	          0.05000007	          0.05000138	          0.11612320	          0.05000036	          0.05000009	          0.05000037	          0.05000005	          0.07027408	          0.05000008	
          0.56772225	         -2.92529823	          2.14329073	         -5.39455505	          0.71250165	          0.91735510	          0.00201944	         28.56058355	          3.80262670	         -1.82893283	        -17.30399236	         -1.19291889	          6.03889302	        -12.01527386	         -8.48198978	          5.32952395	         -0.86951410	         -6.52972190	          7.59903585	         -0.25226026	          1.44856251	          0.19213165	         20.01251839	         -1.60811826	         -0.47466063	          2.04332158	         -6.31267921	        -13.46626529	          6.90854232	          4.96743971	        -13.45226459	         16.36167924	         15.84376666	         34.04712952	         86.51662706	         86.51662706	          0.22218248	          0.05000011	          0.20437156	          0.05003750	          0.05000035	          0.05000031	          0.11665280	          0.05000166	          0.17348973	          0.05000027	          0.05001237	          0.09876947	          0.22000631	          0.18643449	          0.13729658	          0.12767785	          0.05000057	          0.05932274	          0.09920481	          0.05000028	          0.05000030	          0.10172154	          0.05927656	          0.05209493	          0.42221280	          0.13365308	          0.13018829	          0.05927704	          0.13104745	          0.13003717	          0.11409483	          0.05912053	          0.06254650	          0.05730907	          0.05473616	          0.05000319	          0.05000566	          0.44232977	          0.28460838	          0.16572063	          0.20758991	          0.51166960	          0.13870429	          0.05000007	          0.11935260	          0.08402812	          0.30792429	          0.08330992	          0.05927679	          0.23102546	          0.15292955	          0.08582196	          0.05000210	          0.05000130	          0.05000153	          0.05000024	          0.08331237	          0.12315675	          0.06906545	          0.05927814	          0.05927577	          0.05927691	          0.24683128	          0.07573279	          0.05002292	          0.05001650	          0.05001513	          0.05096883	          0.33230874	          0.59362154	          0.05588514	          0.05000187	          0.05000044	          0.18752119	          0.15939801	          0.12421427	          0.10110662	          0.23349474	          0.31682132	          0.25415469	          0.25436132	          0.22920759	          0.30245318	          0.05000004	          0.05000138	          0.14796970	          0.05000018	          0.05000006	          0.05000023	          0.05000017	          0.05927653	          0.05927655	
          0.57885406	         -2.91929333	          2.24465227	         -5.66526662	          0.72945399	          0.91650316	          0.00183434	         27.84815102	          4.03651305	         -1.56405061	        -17.17139294	         -1.49953082	          5.81042804	        -12.57409820	        -10.38101014	          4.74855689	         -1.65780360	         -6.89144595	          8.40860601	         -0.21860270	          1.01288770	          0.19440359	         21.19312411	         -1.39181981	         -0.69051040	          2.09081604	         -7.19328077	        -13.46742246	          6.82522501	          4.65430149	        -13.45424739	         16.62813040	         15.51616252	         35.14714826	         86.51662706	         86.51662706	          0.28568388	          0.24027691	          0.28845687	          0.15702959	          0.19371846	          0.14969176	          0.09839721	          0.05459358	          0.14633941	          0.07522789	          0.05000253	          0.08331255	          0.18557637	          0.15725857	          0.11581065	          0.13572280	          0.05000130	          0.05003948	          0.08368021	          0.18129419	          0.14130333	          0.11082269	          0.05000024	          0.05000022	          0.35613851	          0.11273721	          0.10981469	          0.05000057	          0.11053943	          0.10968736	          0.09623980	          0.05000045	          0.05275854	          0.05000012	          0.05000013	          0.05000047	          0.05000059	          0.56652426	          0.35343093	          0.19589301	          0.39477333	          0.52879914	          0.24478430	          0.06746941	          0.11245407	          0.07087811	          0.27426174	          0.07027234	          0.05000031	          0.35410479	          0.12899688	          0.07239128	          0.05000313	          0.05000026	          0.05000020	          0.05000048	          0.07027514	          0.12579411	          0.05825729	          0.05000180	          0.05000182	          0.05000115	          0.22905098	          0.06388546	          0.05000080	          0.05000199	          0.05000119	          0.05000083	          0.28030513	          0.56662263	          0.05000014	          0.05000096	          0.05000073	          0.16379726	          0.13445947	          0.10477666	          0.15293105	          0.19695387	          0.26724023	          0.21438062	          0.21455569	          0.19333795	          0.25512092	          0.05000004	          0.08302775	          0.14066960	          0.05000023	          0.05000007	          0.05000022	          0.05612152	          0.05000004	          0.05000004	
          0.58998586	         -2.91207372	          2.33632416	         -5.90121606	          0.74641357	          0.91577025	          0.00161595	         27.13525218	          4.26898413	         -1.31075864	        -16.93806113	         -1.79362303	          5.58993944	        -13.14353468	        -12.40933186	          4.20288771	         -2.62141499	         -7.25586246	          9.17767460	         -0.21940840	          0.56678660	          0.16347233	         22.20835153	         -1.18474376	         -0.90440351	          2.13119558	         -8.04517023	        -13.46698489	          6.77336608	          4.31983056	        -13.46297949	         16.87598759	         15.22884581	         36.18257537	         86.51662706	         86.51662706	          0.36673226	          0.32391095	          0.36913163	          0.14739599	          0.16340682	          0.18875248	          0.08399308	          0.07587642	          0.12343814	          0.06345532	          0.05000062	          0.07027466	          0.15653539	          0.15039700	          0.17814096	          0.16481816	          0.05000050	          0.05001093	          0.09536174	          0.23386771	          0.18540745	          0.15829893	          0.05000019	          0.05000019	          0.30040455	          0.09509458	          0.14134870	          0.05000012	          0.15509258	          0.16009793	          0.13492022	          0.05000005	          0.05000010	          0.05000002	          0.05000004	          0.05000028	          0.05000026	          0.61103812	          0.29812078	          0.16523673	          0.50078688	          0.57484111	          0.27698085	          0.08304511	          0.09485567	          0.05978602	          0.29740619	          0.05927512	          0.05000014	          0.29869076	          0.10880955	          0.06106244	          0.05000391	          0.05000047	          0.05000041	          0.05000028	          0.05927789	          0.16150788	          0.08034308	          0.05001473	          0.05001172	          0.05004803	          0.19320747	          0.05928040	          0.05000173	          0.05000382	          0.05000242	          0.05000201	          0.23643872	          0.52439671	          0.05000031	          0.05000096	          0.05000024	          0.13816376	          0.13881253	          0.13881567	          0.12899911	          0.16613148	          0.22541834	          0.18083102	          0.18097881	          0.16308162	          0.21519580	          0.05000043	          0.07661984	          0.14717389	          0.05000115	          0.09773156	          0.05000162	          0.07581521	          0.05000003	          0.05000007	
